<svg width="174" height="36" viewBox="0 0 174 36" fill="none" xmlns="http://www.w3.org/2000/svg">
<path d="M39.8768 26.7216H44.0404V21.372H46.8666C50.8115 21.372 53.276 19.0336 53.276 15.4588C53.276 11.9177 50.862 9.49519 46.9928 9.49519H39.8768V26.7216ZM44.0404 18.0916V12.8513H46.0928C47.9601 12.8513 48.961 13.8607 48.961 15.4588C48.961 17.0486 47.9601 18.0916 46.0928 18.0916H44.0404ZM53.9072 26.7216H58.0708V19.7991H64.8588V26.7216H69.014V9.49519H64.8588V16.4093H58.0708V9.49519H53.9072V26.7216ZM70.2045 26.7216H74.3681V21.372H77.1943C81.1392 21.372 83.6037 19.0336 83.6037 15.4588C83.6037 11.9177 81.1897 9.49519 77.3205 9.49519H70.2045V26.7216ZM74.3681 18.0916V12.8513H76.4205C78.2878 12.8513 79.2887 13.8607 79.2887 15.4588C79.2887 17.0486 78.2878 18.0916 76.4205 18.0916H74.3681ZM89.7167 9.49519V21.8094C89.7167 23.9542 88.6906 25.1066 86.8905 25.1066C85.2503 25.1066 84.0643 24.1477 84.0643 22.6841H82.012C82.012 25.3337 84.0643 26.9571 86.8905 26.9571C89.885 26.9571 91.8027 25.115 91.8027 21.8094V9.49519H89.7167ZM94.7948 26.7216L96.5276 21.843H103.492L105.225 26.7216H107.412L101.086 9.49519H98.9332L92.6079 26.7216H94.7948ZM97.1836 19.9925L99.9426 12.2205H100.077L102.836 19.9925H97.1836ZM108.2 26.7216H114.424C118.496 26.7216 120.178 24.7365 120.178 22.1458C120.178 19.4205 118.294 17.9402 116.712 17.8392V17.671C118.193 17.2672 119.505 16.2915 119.505 14.0709C119.505 11.5476 117.823 9.49519 114.223 9.49519H108.2V26.7216ZM110.286 24.8711V18.8822H114.525C116.78 18.8822 118.193 20.3963 118.193 22.1458C118.193 23.6599 117.15 24.8711 114.424 24.8711H110.286ZM110.286 17.0654V11.3457H114.223C116.51 11.3457 117.52 12.5569 117.52 14.0709C117.52 15.8878 116.039 17.0654 114.155 17.0654H110.286ZM121.711 26.7216H127.935C132.006 26.7216 133.688 24.7365 133.688 22.1458C133.688 19.4205 131.804 17.9402 130.223 17.8392V17.671C131.703 17.2672 133.015 16.2915 133.015 14.0709C133.015 11.5476 131.333 9.49519 127.733 9.49519H121.711V26.7216ZM123.797 24.8711V18.8822H128.036C130.29 18.8822 131.703 20.3963 131.703 22.1458C131.703 23.6599 130.66 24.8711 127.935 24.8711H123.797ZM123.797 17.0654V11.3457H127.733C130.021 11.3457 131.03 12.5569 131.03 14.0709C131.03 15.8878 129.55 17.0654 127.666 17.0654H123.797ZM135.221 26.7216H145.752V24.8711H137.307V19.0168H145.079V17.1663H137.307V11.3457H145.617V9.49519H135.221V26.7216ZM147.482 26.7216H149.568V19.9925H153.337C153.488 19.9925 153.631 19.9925 153.774 19.9841L157.408 26.7216H159.83L155.936 19.6056C158.131 18.857 159.157 17.0654 159.157 14.7775C159.157 11.7326 157.34 9.49519 153.303 9.49519H147.482V26.7216ZM149.568 18.1084V11.3457H153.236C156.028 11.3457 157.105 12.7083 157.105 14.7775C157.105 16.8467 156.028 18.1084 153.269 18.1084H149.568ZM170.159 13.8018H172.178C172.085 11.2027 169.688 9.25967 166.357 9.25967C163.06 9.25967 160.469 11.1775 160.469 14.0709C160.469 16.3925 162.151 17.7719 164.843 18.5458L166.963 19.1514C168.78 19.6561 170.395 20.2953 170.395 22.0112C170.395 23.8954 168.578 25.1402 166.189 25.1402C164.136 25.1402 162.32 24.2318 162.151 22.2804H159.998C160.2 25.1066 162.488 27.0244 166.189 27.0244C170.159 27.0244 172.413 24.8374 172.413 22.0449C172.413 18.8149 169.351 17.7719 167.568 17.3009L165.819 16.8299C164.54 16.4934 162.488 15.8205 162.488 13.97C162.488 12.3214 164.002 11.1102 166.29 11.1102C168.376 11.1102 169.957 12.1027 170.159 13.8018Z" fill="white"/>
<path fill-rule="evenodd" clip-rule="evenodd" d="M8.42894 15.957C8.78747 16.1288 8.88503 16.7247 8.54074 16.9235L5.58334 18.6309C4.37467 19.3287 3.96055 20.8743 4.65838 22.0829L11.5557 34.0294C12.2535 35.2381 13.799 35.6522 15.0077 34.9544L26.9542 28.0571C28.1628 27.3592 28.577 25.8137 27.8791 24.6051L26.3684 21.9884C26.1414 21.5952 25.4958 21.6658 25.2484 22.0466C24.9349 22.5292 24.5057 22.947 23.9731 23.2545C22.1701 24.2955 19.8645 23.6777 18.8236 21.8747C17.7826 20.0717 18.4003 17.7661 20.2034 16.7251C20.736 16.4177 21.3124 16.2549 21.8871 16.2247C22.3406 16.2008 22.7246 15.6771 22.4975 15.2838L20.9818 12.6586C20.284 11.4499 18.7385 11.0358 17.5298 11.7336L14.6013 13.4244C14.257 13.6232 13.7898 13.2407 13.8203 12.8444C13.8766 12.1127 13.7203 11.3571 13.3257 10.6736C12.2847 8.8706 9.97918 8.25283 8.17614 9.29382C6.37311 10.3348 5.75534 12.6403 6.79632 14.4434C7.19091 15.1268 7.7672 15.64 8.42894 15.957Z" fill="white"/>
<g filter="url(#filter0_bi)">
<path fill-rule="evenodd" clip-rule="evenodd" d="M16.4074 10.1159C16.7178 10.3637 16.6608 10.956 16.2771 11.0588L12.1293 12.1702C10.7812 12.5314 9.98118 13.9171 10.3424 15.2652L14.5062 30.8046C14.8674 32.1527 16.2531 32.9527 17.6012 32.5915L33.1406 28.4277C34.4887 28.0665 35.2888 26.6808 34.9275 25.3327L33.9323 21.6186C33.8148 21.1801 33.1793 21.0839 32.8529 21.3993C32.3538 21.8816 31.7288 22.2476 31.0109 22.44C28.7553 23.0444 26.4367 21.7058 25.8323 19.4501C25.2279 17.1944 26.5665 14.8758 28.8222 14.2714C29.5401 14.0791 30.2643 14.0835 30.9377 14.2517C31.3781 14.3617 31.8804 13.9605 31.7629 13.5221L30.7637 9.79327C30.4025 8.44518 29.0169 7.64516 27.6688 8.00638L23.5712 9.10431C23.1875 9.20712 22.842 8.72276 22.9869 8.35291C23.3048 7.54164 23.3756 6.62529 23.1328 5.7191C22.5284 3.46342 20.2098 2.1248 17.9541 2.72921C15.6984 3.33361 14.3598 5.65217 14.9642 7.90785C15.207 8.81405 15.7265 9.57223 16.4074 10.1159Z" fill="url(#paint0_linear)" fill-opacity="0.9"/>
</g>
<defs>
<filter id="filter0_bi" x="4.68587" y="-3.03245" width="33.9282" height="39.3105" filterUnits="userSpaceOnUse" color-interpolation-filters="sRGB">
<feFlood flood-opacity="0" result="BackgroundImageFix"/>
<feGaussianBlur in="BackgroundImage" stdDeviation="1.51623"/>
<feComposite in2="SourceAlpha" operator="in" result="effect1_backgroundBlur"/>
<feBlend mode="normal" in="SourceGraphic" in2="effect1_backgroundBlur" result="shape"/>
<feColorMatrix in="SourceAlpha" type="matrix" values="0 0 0 0 0 0 0 0 0 0 0 0 0 0 0 0 0 0 127 0" result="hardAlpha"/>
<feOffset dx="0.252704" dy="0.252704"/>
<feGaussianBlur stdDeviation="0.505409"/>
<feComposite in2="hardAlpha" operator="arithmetic" k2="-1" k3="1"/>
<feColorMatrix type="matrix" values="0 0 0 0 1 0 0 0 0 0.9 0 0 0 0 0 0 0 0 0.25 0"/>
<feBlend mode="normal" in2="shape" result="effect2_innerShadow"/>
</filter>
<linearGradient id="paint0_linear" x1="20.3656" y1="2.21568" x2="27.7978" y2="29.9531" gradientUnits="userSpaceOnUse">
<stop stop-color="#FFB82F"/>
<stop offset="1" stop-color="#FF3D00"/>
</linearGradient>
</defs>
</svg>
